<svg width="512" height="512" viewBox="0 0 512 512" fill="none" xmlns="http://www.w3.org/2000/svg">
  <rect width="512" height="512" fill="white"></rect>

  <!-- Board group -->
  <g transform="translate(128 110)">
    <!-- settings -->
    <!-- top tile size: 64x56, gap: 10, row shift: 12 -->

    <!-- Row 1 -->
    <polygon points="12,0 76,0 70,56 6,56" fill="white" stroke="black" stroke-width="4"></polygon>
    <polygon points="86,0 150,0 144,56 80,56" fill="white" stroke="black" stroke-width="4"></polygon>
    <polygon points="160,0 224,0 218,56 154,56" fill="white" stroke="black" stroke-width="4"></polygon>

    <!-- Row 2 -->
    <polygon points="6,72 70,72 64,128 0,128" fill="white" stroke="black" stroke-width="4"></polygon>
    <polygon points="80,72 144,72 138,128 74,128" fill="white" stroke="black" stroke-width="4"></polygon>
    <polygon points="154,72 218,72 212,128 148,128" fill="black" stroke="black" stroke-width="4"></polygon>

    <!-- Row 3 -->
    <polygon points="0,144 64,144 58,200 -6,200" fill="black" stroke="black" stroke-width="4"></polygon>
    <polygon points="74,144 138,144 132,200 68,200" fill="black" stroke="black" stroke-width="4"></polygon>
    <polygon points="148,144 212,144 206,200 142,200" fill="black" stroke="black" stroke-width="4"></polygon>
  </g>
</svg>